<svg xmlns:xlink="http://www.w3.org/1999/xlink" xmlns="http://www.w3.org/2000/svg" version="1.1" viewBox="0 0 500 500" height="500px" width="500px">
    <title>苹果</title>
    <defs>
        <filter id="filter-1" filterUnits="objectBoundingBox" height="305.5%" width="282.9%" y="-102.7%" x="-91.5%">
            <feGaussianBlur in="SourceGraphic" stdDeviation="50"></feGaussianBlur>
        </filter>
        <radialGradient id="radialGradient-2" r="96.4576219%" fy="9.98537515%" fx="50%" cy="9.98537515%" cx="50%">
            <stop offset="0%" stop-color="#FF7653"></stop>
            <stop offset="100%" stop-color="#BF1B1B"></stop>
        </radialGradient>
        <path id="path-3" d="M258.569248,368.961496 C318.461164,369.148568 371.559279,317.447114 373.400179,253.961241 C375.745226,173.089136 321.98862,138.961496 258.569248,138.961496 C195.149876,138.961496 139.144127,168.871385 143.738317,253.961241 C147.162504,317.38124 198.677331,368.773405 258.569248,368.961496 Z"></path>
        <filter id="filter-4" filterUnits="objectBoundingBox" height="108.7%" width="108.7%" y="-4.3%" x="-4.3%">
            <feGaussianBlur result="shadowBlurInner1" in="SourceAlpha" stdDeviation="4"></feGaussianBlur>
            <feOffset result="shadowOffsetInner1" in="shadowBlurInner1" dy="4" dx="1"></feOffset>
            <feComposite result="shadowInnerInner1" k3="1" k2="-1" operator="arithmetic" in2="SourceAlpha" in="shadowOffsetInner1"></feComposite>
            <feColorMatrix result="shadowMatrixInner1" in="shadowInnerInner1" type="matrix" values="0 0 0 0 1   0 0 0 0 0.523990091   0 0 0 0 0.523990091  0 0 0 1 0"></feColorMatrix>
            <feGaussianBlur result="shadowBlurInner2" in="SourceAlpha" stdDeviation="9"></feGaussianBlur>
            <feOffset result="shadowOffsetInner2" in="shadowBlurInner2" dy="-2" dx="-1"></feOffset>
            <feComposite result="shadowInnerInner2" k3="1" k2="-1" operator="arithmetic" in2="SourceAlpha" in="shadowOffsetInner2"></feComposite>
            <feColorMatrix result="shadowMatrixInner2" in="shadowInnerInner2" type="matrix" values="0 0 0 0 0.97254902   0 0 0 0 0.380392157   0 0 0 0 0.266666667  0 0 0 0.58907889 0"></feColorMatrix>
            <feMorphology result="shadowSpreadInner3" in="SourceAlpha" operator="erode" radius="1"></feMorphology>
            <feGaussianBlur result="shadowBlurInner3" in="shadowSpreadInner3" stdDeviation="0.5"></feGaussianBlur>
            <feOffset result="shadowOffsetInner3" in="shadowBlurInner3" dy="0" dx="0"></feOffset>
            <feComposite result="shadowInnerInner3" k3="1" k2="-1" operator="arithmetic" in2="SourceAlpha" in="shadowOffsetInner3"></feComposite>
            <feColorMatrix result="shadowMatrixInner3" in="shadowInnerInner3" type="matrix" values="0 0 0 0 1   0 0 0 0 1   0 0 0 0 1  0 0 0 0.301272946 0"></feColorMatrix>
            <feMerge>
                <feMergeNode in="shadowMatrixInner1"></feMergeNode>
                <feMergeNode in="shadowMatrixInner2"></feMergeNode>
                <feMergeNode in="shadowMatrixInner3"></feMergeNode>
            </feMerge>
        </filter>
        <radialGradient id="radialGradient-5" gradientTransform="translate(0.431271,0.206970),scale(0.581395,1.000000),rotate(60.411480),scale(1.000000,2.775013),translate(-0.431271,-0.206970)" r="71.5825197%" fy="20.6970215%" fx="43.1271437%" cy="20.6970215%" cx="43.1271437%">
            <stop offset="0%" stop-color="#F6704F"></stop>
            <stop offset="100%" stop-color="#AE2624"></stop>
        </radialGradient>
        <filter id="filter-6" filterUnits="objectBoundingBox" height="175.1%" width="144.3%" y="-39.4%" x="-22.2%">
            <feGaussianBlur in="SourceGraphic" stdDeviation="6"></feGaussianBlur>
        </filter>
        <filter id="filter-7" filterUnits="objectBoundingBox" height="175.1%" width="144.3%" y="-39.4%" x="-22.2%">
            <feGaussianBlur in="SourceGraphic" stdDeviation="6"></feGaussianBlur>
        </filter>
        <filter id="filter-8" filterUnits="objectBoundingBox" height="175.1%" width="144.3%" y="-39.4%" x="-22.2%">
            <feGaussianBlur in="SourceGraphic" stdDeviation="6"></feGaussianBlur>
        </filter>
        <filter id="filter-9" filterUnits="objectBoundingBox" height="175.1%" width="144.3%" y="-39.4%" x="-22.2%">
            <feGaussianBlur in="SourceGraphic" stdDeviation="6"></feGaussianBlur>
        </filter>
        <filter id="filter-10" filterUnits="objectBoundingBox" height="179.7%" width="148.5%" y="-43.2%" x="-24.3%">
            <feGaussianBlur in="SourceGraphic" stdDeviation="6"></feGaussianBlur>
        </filter>
        <filter id="filter-11" filterUnits="objectBoundingBox" height="179.7%" width="148.5%" y="-43.2%" x="-24.3%">
            <feGaussianBlur in="SourceGraphic" stdDeviation="6"></feGaussianBlur>
        </filter>
        <filter id="filter-12" filterUnits="objectBoundingBox" height="204.7%" width="154.2%" y="-52.3%" x="-27.1%">
            <feGaussianBlur in="SourceGraphic" stdDeviation="15"></feGaussianBlur>
        </filter>
        <filter id="filter-13" filterUnits="objectBoundingBox" height="305.3%" width="239.3%" y="-102.6%" x="-69.6%">
            <feGaussianBlur in="SourceGraphic" stdDeviation="26"></feGaussianBlur>
        </filter>
        <filter id="filter-14" filterUnits="objectBoundingBox" height="192.9%" width="154.0%" y="-49.2%" x="-27.1%">
            <feGaussianBlur in="SourceGraphic" stdDeviation="9"></feGaussianBlur>
        </filter>
        <filter id="filter-15" filterUnits="objectBoundingBox" height="185.9%" width="154.4%" y="-40.5%" x="-27.1%">
            <feGaussianBlur in="SourceGraphic" stdDeviation="10"></feGaussianBlur>
        </filter>
        <filter id="filter-16" filterUnits="objectBoundingBox" height="303.2%" width="310.0%" y="-101.6%" x="-105.0%">
            <feGaussianBlur in="SourceGraphic" stdDeviation="21"></feGaussianBlur>
        </filter>
        <linearGradient id="linearGradient-17" y2="87.8422134%" x2="106.890998%" y1="21.0311648%" x1="13.4102612%">
            <stop offset="0%" stop-color="#653D16"></stop>
            <stop offset="100%" stop-color="#332818"></stop>
        </linearGradient>
        <path id="path-18" d="M179.708275,149.961496 C198.081397,162.559956 211.441293,174.958574 219.787964,187.157349 C218.149821,187.997766 215.977946,189.029667 213.272339,190.253052 C205.195541,177.665636 197.558382,169.117327 190.360862,164.608124 C183.163342,160.09892 177.534429,157.393603 173.474125,156.492171 C175.250433,155.415033 176.610048,154.382579 177.552969,153.394808 C178.49589,152.407037 179.214325,151.262599 179.708275,149.961496 Z"></path>
        <filter id="filter-19" filterUnits="objectBoundingBox" height="112.4%" width="110.8%" y="-6.2%" x="-5.4%">
            <feGaussianBlur result="shadowBlurInner1" in="SourceAlpha" stdDeviation="1.5"></feGaussianBlur>
            <feOffset result="shadowOffsetInner1" in="shadowBlurInner1" dy="2" dx="0"></feOffset>
            <feComposite result="shadowInnerInner1" k3="1" k2="-1" operator="arithmetic" in2="SourceAlpha" in="shadowOffsetInner1"></feComposite>
            <feColorMatrix in="shadowInnerInner1" type="matrix" values="0 0 0 0 1   0 0 0 0 0.664900215   0 0 0 0 0.413719512  0 0 0 0.5 0"></feColorMatrix>
        </filter>
        <filter id="filter-20" filterUnits="objectBoundingBox" height="302.3%" width="307.1%" y="-101.2%" x="-103.6%">
            <feGaussianBlur in="SourceGraphic" stdDeviation="29"></feGaussianBlur>
        </filter>
    </defs>
    <g fill-rule="evenodd" fill="none" stroke-width="1" stroke="none" id="苹果">
        <rect height="500" width="500" y="0" x="0" fill="#FFFFFF"></rect>
        <path filter="url(#filter-1)" fill="#FF9B6D" fill-opacity="0.692362325" id="椭圆形备份-2" d="M169.378388,389.607464 C212.38536,406.081885 258.720585,389.615865 272.87101,352.829578 C287.021435,316.043292 263.628583,272.866957 220.621612,256.392536 C177.61464,239.918115 131.279415,256.384135 117.12899,293.170422 C102.978565,329.956708 126.371417,373.133043 169.378388,389.607464 Z"></path>
        <g transform="translate(258.474125, 253.961496) rotate(-28.000000) translate(-258.474125, -253.961496)" id="椭圆形">
            <use xlink:href="#path-3" fill-rule="evenodd" fill="url(#radialGradient-2)"></use>
            <use xlink:href="#path-3" filter="url(#filter-4)" fill-opacity="1" fill="black"></use>
        </g>
        <path fill="url(#radialGradient-5)" id="椭圆形" d="M221.54041,186.21278 C245.048097,173.886333 261.388873,158.856402 258.038557,152.642489 C254.68824,146.428576 232.915527,151.383764 209.40784,163.710211 C185.900154,176.036658 169.559377,191.06659 172.909694,197.280503 C176.260011,203.494416 198.032724,198.539228 221.54041,186.21278 Z"></path>
        <path filter="url(#filter-6)" stroke-width="5" stroke="#F97050" id="路径-8" d="M173.474125,200.961496 C175.900833,189.754799 187.87012,178.138024 209.381986,166.111172 C241.649786,148.070893 263.054828,145.827415 265.474125,152.193684"></path>
        <path filter="url(#filter-7)" stroke-width="5" stroke="#F97050" id="路径-8" d="M173.474125,200.961496 C175.900833,189.754799 187.87012,178.138024 209.381986,166.111172 C241.649786,148.070893 263.054828,145.827415 265.474125,152.193684"></path>
        <path filter="url(#filter-8)" stroke-width="5" stroke="#F97050" id="路径-8" d="M173.474125,200.961496 C175.900833,189.754799 187.87012,178.138024 209.381986,166.111172 C241.649786,148.070893 263.054828,145.827415 265.474125,152.193684"></path>
        <path filter="url(#filter-9)" stroke-width="5" stroke="#F97050" id="路径-8" d="M173.474125,200.961496 C175.900833,189.754799 187.87012,178.138024 209.381986,166.111172 C241.649786,148.070893 263.054828,145.827415 265.474125,152.193684"></path>
        <path filter="url(#filter-10)" stroke-width="9" stroke="#F97050" id="路径-8" d="M173.474125,200.961496 C175.900833,189.754799 187.87012,178.138024 209.381986,166.111172 C241.649786,148.070893 263.054828,145.827415 265.474125,152.193684"></path>
        <path filter="url(#filter-11)" stroke-width="9" stroke="#F97050" id="路径-8" d="M173.474125,200.961496 C175.900833,189.754799 187.87012,178.138024 209.381986,166.111172 C241.649786,148.070893 263.054828,145.827415 265.474125,152.193684"></path>
        <path filter="url(#filter-12)" fill="#DF3200" id="路径-9" d="M173.079441,270.60312 C154.169307,289.829031 186.814216,319.060748 215.851692,337.550406 C244.889167,356.040064 283.842078,349.099518 304.901323,337.550406 C325.960569,326.001294 344.263322,297.838233 325.960569,285.575862 C307.657815,273.313491 281.783348,298.164567 249.82899,285.575862 C217.874631,272.987157 191.989574,251.377209 173.079441,270.60312 Z"></path>
        <ellipse ry="38" rx="56" cy="212.961496" cx="295.474125" filter="url(#filter-13)" fill="#FF6646" id="椭圆形"></ellipse>
        <path filter="url(#filter-14)" stroke-width="9" stroke="#FFD835" stroke-opacity="0.706758086" id="路径-8" d="M157.474125,208.961496 C160.533887,195.168638 175.625596,180.871069 202.749254,166.068789 C243.434741,143.865369 270.423706,141.104166 273.474125,148.939574"></path>
        <path filter="url(#filter-15)" stroke-width="9" stroke="#FFAF35" stroke-opacity="0.685096154" id="路径-8" d="M282.474125,143.961496 C279.625576,159.56733 263.485281,176.208366 234.053241,193.884604 C189.905182,220.398961 160.15373,224.550172 156.474125,215.871315"></path>
        <path fill="#3B2004" id="路径-11" d="M179.708275,149.961496 C179.708275,149.961496 174.626814,152.857158 173.474125,156.492171 C178.430291,154.4105 179.708275,149.961496 179.708275,149.961496 Z"></path>
        <path filter="url(#filter-16)" fill="#FFFFFF" fill-opacity="0.628441871" id="椭圆形" d="M328.790135,231.387913 C340.448807,221.596274 340.356526,202.274786 328.584019,188.232164 C316.811512,174.189541 297.816788,170.743438 286.158116,180.535078 C274.499443,190.326718 274.591725,209.648205 286.364232,223.690827 C298.136739,237.73345 317.131463,241.179553 328.790135,231.387913 Z"></path>
        <g id="路径-10">
            <use xlink:href="#path-18" fill-rule="evenodd" fill="url(#linearGradient-17)"></use>
            <use xlink:href="#path-18" filter="url(#filter-19)" fill-opacity="1" fill="black"></use>
        </g>
        <path filter="url(#filter-20)" fill="#FFB935" fill-opacity="0.572006119" id="路径-12" d="M260.908433,243.824534 C254.718513,233.19248 215.31427,206.065272 195.857825,216.182044 C176.401379,226.298817 188.656314,269.566298 197.401168,276.464537 C206.146023,283.362776 215.4469,298.60839 240.732058,299.883888 C266.017215,301.159385 265.773136,286.364417 268.592534,281.110088 C271.411932,275.855759 267.098352,254.456589 260.908433,243.824534 Z"></path>
    </g>
</svg>